<svg xmlns="http://www.w3.org/2000/svg" width="17" height="18" viewBox="0 0 17 18" fill="none">
  <path d="M15.6076 4.4971C15.5912 4.4971 15.5665 4.4971 15.5419 4.4971C11.2008 4.06216 6.86785 3.89804 2.57592 4.33297L0.901833 4.4971C0.557168 4.52992 0.253535 4.28373 0.220709 3.93907C0.187884 3.5944 0.434074 3.29898 0.770532 3.26615L2.44462 3.10203C6.8104 2.65888 11.2336 2.83122 15.665 3.26615C16.0015 3.29898 16.2477 3.60261 16.2148 3.93907C16.1902 4.25912 15.9194 4.4971 15.6076 4.4971Z" fill="#FF003D"/>
  <path d="M5.35046 3.66822C5.31763 3.66822 5.28481 3.66822 5.24378 3.66002C4.91552 3.60257 4.68575 3.28253 4.74319 2.95427L4.92373 1.87925C5.05503 1.09144 5.23557 0 7.14761 0H9.29766C11.2179 0 11.3985 1.13247 11.5216 1.88745L11.7021 2.95427C11.7596 3.29073 11.5298 3.61078 11.2015 3.66002C10.8651 3.71746 10.545 3.48768 10.4958 3.15943L10.3152 2.09261C10.2004 1.37866 10.1757 1.23915 9.30587 1.23915H7.15581C6.28598 1.23915 6.26957 1.35404 6.14647 2.0844L5.95772 3.15122C5.90849 3.45486 5.64588 3.66822 5.35046 3.66822Z" fill="#FF003D"/>
  <path d="M10.8568 17.6437H5.5883C2.7243 17.6437 2.60941 16.0599 2.51914 14.7797L1.98573 6.51589C1.96111 6.17943 2.22371 5.88401 2.56017 5.85939C2.90484 5.84298 3.19206 6.09738 3.21668 6.43384L3.75009 14.6976C3.84036 15.945 3.87318 16.4127 5.5883 16.4127H10.8568C12.5801 16.4127 12.6129 15.945 12.695 14.6976L13.2284 6.43384C13.253 6.09738 13.5484 5.84298 13.8849 5.85939C14.2214 5.88401 14.484 6.17123 14.4593 6.51589L13.9259 14.7797C13.8357 16.0599 13.7208 17.6437 10.8568 17.6437Z" fill="#FF003D"/>
  <path d="M9.58452 13.1301H6.85182C6.51534 13.1301 6.23633 12.8511 6.23633 12.5146C6.23633 12.1782 6.51534 11.8992 6.85182 11.8992H9.58452C9.92098 11.8992 10.2 12.1782 10.2 12.5146C10.2 12.8511 9.92098 13.1301 9.58452 13.1301Z" fill="#FF003D"/>
  <path d="M10.2738 9.84765H6.17065C5.83419 9.84765 5.55518 9.56863 5.55518 9.23217C5.55518 8.89571 5.83419 8.6167 6.17065 8.6167H10.2738C10.6103 8.6167 10.8893 8.89571 10.8893 9.23217C10.8893 9.56863 10.6103 9.84765 10.2738 9.84765Z" fill="#FF003D"/>
</svg>