<svg xmlns="http://www.w3.org/2000/svg" width="17" height="19" viewBox="0 0 19 16" fill="none">
  <path d="M9.2103 0C4.12368 0 0 3.99878 0 8.93062C0 13.8631 4.12368 17.8619 9.2103 17.8619C14.2969 17.8619 18.4199 13.8631 18.4199 8.93062C18.4199 3.99878 14.2969 0 9.2103 0ZM9.2103 16.3379C4.99158 16.3379 1.57146 13.0221 1.57146 8.93062C1.57146 4.83974 4.99158 1.52384 9.2103 1.52384C13.429 1.52384 16.8491 4.83974 16.8491 8.93062C16.8491 13.0221 13.429 16.3379 9.2103 16.3379Z" fill="#448CFF"/>
  <path d="M9.23058 9.69551C8.79388 9.70927 8.42902 9.37711 8.41573 8.95369L8.32147 5.96155C8.30817 5.53804 8.65135 5.18362 9.088 5.16991C9.5247 5.15615 9.88951 5.48827 9.90285 5.91173L9.99711 8.90387C10.0105 9.32729 9.66728 9.68175 9.23058 9.69551Z" fill="#FFA573"/>
  <path d="M8.43901 9.06105C8.35324 8.63751 8.63088 8.23105 9.05917 8.15314L14.2162 7.21503C14.6445 7.13713 15.0612 7.41729 15.147 7.84083C15.2327 8.2643 14.9551 8.6707 14.5268 8.74861L9.36972 9.68672C8.94143 9.76463 8.52476 9.48453 8.43901 9.06105Z" fill="#FFA573"/>
</svg>