<svg xmlns="http://www.w3.org/2000/svg" width="233" height="92" viewBox="0 0 233 92" fill="none">
  <path d="M229.442 13.4382C230.523 13.4382 231.25 14.5479 230.822 15.5435L214.74 52.9694C214.56 53.371 214.33 53.6924 214.049 53.9336C213.789 54.1746 213.377 54.2951 212.816 54.2951H211.196C210.098 54.2951 209.371 53.155 209.831 52.1558L214.127 42.7985C214.307 42.4069 214.31 41.9565 214.139 41.5617L202.767 15.5522C202.331 14.5556 203.059 13.4382 204.144 13.4382H206.473C206.934 13.4382 207.295 13.5587 207.555 13.7997C207.836 14.0207 208.025 14.2718 208.126 14.553L216.274 33.7762C216.544 34.4884 217.699 34.5102 217.968 33.7976C217.974 33.7804 217.981 33.7632 217.987 33.746L225.894 14.553C226.015 14.2316 226.214 13.9705 226.496 13.7696C226.796 13.5486 227.127 13.4382 227.488 13.4382H229.442Z" fill="white"/>
  <path d="M187.858 43.9603C187.027 43.9603 186.355 43.2851 186.355 42.4521V19.3615C186.355 18.5958 185.782 17.9515 185.025 17.8632L182.988 17.6263C182.567 17.5259 182.215 17.3752 181.935 17.1744C181.674 16.9535 181.545 16.642 181.545 16.2403V15.5491C181.545 14.7161 182.216 14.0408 183.048 14.0408H184.852C185.681 14.0408 186.355 13.3656 186.355 12.5326V11.088C186.355 9.34046 186.595 7.79376 187.076 6.44794C187.577 5.08202 188.279 3.93706 189.181 3.01306C190.102 2.06898 191.204 1.35589 192.488 0.873797C193.77 0.391709 195.213 0.150665 196.817 0.150665C197.766 0.150665 198.66 0.247915 199.502 0.442412C200.148 0.591829 200.554 1.2085 200.524 1.87347L200.455 3.43489C200.415 3.91697 200.144 4.1781 199.643 4.21828C199.162 4.25846 198.51 4.27855 197.689 4.27855C196.766 4.27855 195.924 4.39907 195.164 4.64011C194.421 4.88115 193.781 5.27284 193.24 5.81519C192.699 6.35754 192.278 7.07063 191.977 7.95446C191.696 8.83828 191.556 9.93302 191.556 11.2387V12.5326C191.556 13.3656 192.228 14.0408 193.059 14.0408H198.832C199.661 14.0408 200.335 14.7161 200.335 15.5491V16.4194C200.335 17.2524 199.661 17.9276 198.832 17.9276H193.24C192.408 17.9276 191.736 18.6029 191.736 19.4358V42.4521C191.736 43.2851 191.063 43.9603 190.233 43.9603H187.858Z" fill="white"/>
  <path d="M174.074 13.4382C174.905 13.4382 175.577 14.1134 175.577 14.9464V42.4521C175.577 43.2851 174.905 43.9603 174.074 43.9603H171.728C170.899 43.9603 170.225 43.2851 170.225 42.4521V14.9464C170.225 14.1134 170.899 13.4382 171.728 13.4382H174.074ZM176.719 3.8567C176.719 4.37896 176.609 4.8711 176.388 5.33309C176.189 5.77501 175.907 6.17674 175.547 6.5383C175.207 6.87979 174.795 7.15096 174.314 7.35183C173.854 7.5527 173.363 7.65313 172.841 7.65313C172.321 7.65313 171.829 7.5527 171.368 7.35183C170.927 7.15096 170.536 6.87979 170.195 6.5383C169.855 6.17674 169.585 5.77501 169.383 5.33309C169.184 4.8711 169.083 4.37896 169.083 3.8567C169.083 3.33444 169.184 2.8423 169.383 2.38031C169.585 1.89822 169.855 1.48644 170.195 1.14496C170.536 0.783395 170.927 0.502177 171.368 0.301305C171.829 0.100435 172.321 0 172.841 0C173.363 0 173.854 0.100435 174.314 0.301305C174.795 0.502177 175.207 0.783395 175.547 1.14496C175.907 1.48644 176.189 1.89822 176.388 2.38031C176.609 2.8423 176.719 3.33444 176.719 3.8567Z" fill="white"/>
  <path d="M141.601 36.1094C141.601 36.4335 141.703 36.751 141.906 37.0033C142.804 38.1213 143.775 38.9239 144.818 39.4107C145.981 39.953 147.284 40.2242 148.727 40.2242C151.573 40.2242 153.757 39.2098 155.28 37.181C156.804 35.1522 157.565 32.2597 157.565 28.5034C157.565 26.5149 157.385 24.8074 157.024 23.3813C156.684 21.9551 156.182 20.79 155.521 19.8862C154.859 18.9621 154.048 18.2892 153.085 17.8673C152.123 17.4455 151.032 17.2346 149.809 17.2346C148.065 17.2346 146.532 17.6364 145.209 18.4398C144.027 19.1689 142.927 20.1709 141.91 21.4458C141.706 21.7016 141.601 22.0219 141.601 22.3497V36.1094ZM140.87 14.7013C141.044 16.0125 142.764 16.5282 143.792 15.7C144.42 15.194 145.083 14.7414 145.78 14.3421C147.464 13.3779 149.388 12.8958 151.552 12.8958C153.317 12.8958 154.91 13.2373 156.332 13.9203C157.756 14.5832 158.969 15.5774 159.97 16.9031C160.973 18.2089 161.744 19.836 162.285 21.7844C162.826 23.7327 163.097 25.9725 163.097 28.5034C163.097 30.7532 162.796 32.8523 162.195 34.8007C161.594 36.729 160.722 38.4062 159.579 39.8325C158.458 41.2386 157.075 42.3533 155.431 43.177C153.807 43.9804 151.973 44.3822 149.929 44.3822C148.065 44.3822 146.462 44.0709 145.119 43.4481C144.955 43.3682 144.793 43.2847 144.633 43.1973C143.427 42.5382 141.601 43.312 141.601 44.6894V52.7869C141.601 53.6199 140.928 54.2951 140.098 54.2951H137.723C136.893 54.2951 136.22 53.6199 136.22 52.7869V14.9464C136.22 14.1134 136.893 13.4382 137.723 13.4382H139.437C140.198 13.4382 140.669 13.8098 140.85 14.553L140.87 14.7013Z" fill="white"/>
  <path d="M125.924 13.4382C126.754 13.4382 127.427 14.1134 127.427 14.9464V42.4521C127.427 43.2851 126.754 43.9603 125.924 43.9603H123.579C122.749 43.9603 122.076 43.2851 122.076 42.4521V14.9464C122.076 14.1134 122.749 13.4382 123.579 13.4382H125.924ZM128.57 3.8567C128.57 4.37896 128.459 4.8711 128.239 5.33309C128.038 5.77501 127.758 6.17674 127.397 6.5383C127.056 6.87979 126.645 7.15096 126.164 7.35183C125.703 7.5527 125.212 7.65313 124.691 7.65313C124.17 7.65313 123.679 7.5527 123.218 7.35183C122.777 7.15096 122.386 6.87979 122.046 6.5383C121.705 6.17674 121.434 5.77501 121.234 5.33309C121.033 4.8711 120.933 4.37896 120.933 3.8567C120.933 3.33444 121.033 2.8423 121.234 2.38031C121.434 1.89822 121.705 1.48644 122.046 1.14496C122.386 0.783395 122.777 0.502177 123.218 0.301305C123.679 0.100435 124.17 0 124.691 0C125.212 0 125.703 0.100435 126.164 0.301305C126.645 0.502177 127.056 0.783395 127.397 1.14496C127.758 1.48644 128.038 1.89822 128.239 2.38031C128.459 2.8423 128.57 3.33444 128.57 3.8567Z" fill="white"/>
  <path d="M104.593 14.9146C104.69 16.1621 106.618 16.5826 107.463 15.6629C107.795 15.3026 108.141 14.9728 108.501 14.6735C109.904 13.4884 111.618 12.8958 113.642 12.8958C114.283 12.8958 114.895 12.9661 115.476 13.1067C115.752 13.1713 116.013 13.2528 116.26 13.3512C116.78 13.5592 117.035 14.1208 116.981 14.6806L116.679 17.777C116.558 18.2792 116.258 18.5302 115.777 18.5302C115.496 18.5302 115.085 18.47 114.544 18.3495C114.003 18.229 113.391 18.1687 112.71 18.1687C111.748 18.1687 110.886 18.3092 110.124 18.5905C109.383 18.8718 108.711 19.2936 108.11 19.856C107.529 20.3984 106.998 21.0813 106.517 21.9049C106.093 22.6435 105.703 23.484 105.347 24.4265C105.285 24.5916 105.254 24.7673 105.254 24.9441V42.4521C105.254 43.2851 104.581 43.9603 103.751 43.9603H101.376C100.545 43.9603 99.8725 43.2851 99.8725 42.4521V14.9464C99.8725 14.1134 100.545 13.4382 101.376 13.4382H102.939C103.52 13.4382 103.921 13.5487 104.142 13.7696C104.362 13.9906 104.512 14.3722 104.593 14.9146Z" fill="white"/>
  <path d="M101.378 4.18645C101.378 5.01941 100.705 5.69464 99.8743 5.69464H88.9308C88.1006 5.69464 87.4276 6.36989 87.4276 7.20284V42.4521C87.4276 43.2851 86.7546 43.9603 85.9244 43.9603H83.1284C82.2982 43.9603 81.6252 43.2851 81.6252 42.4521V7.20284C81.6252 6.36989 80.9522 5.69464 80.1219 5.69464H69.1484C68.3182 5.69464 67.6452 5.01941 67.6452 4.18645V2.29158C67.6452 1.45863 68.3182 0.783386 69.1484 0.783386H99.8743C100.705 0.783386 101.378 1.45863 101.378 2.29158V4.18645Z" fill="white"/>
  <path d="M46.6 62.1249C55.4379 68.0895 62.902 72.9856 70.6017 76.8299C117.372 100.181 188.974 94.9089 214.21 49.0164" stroke="white" stroke-width="2" stroke-linejoin="round" stroke-dasharray="6 6"/>
  <path d="M46.6 62.1249C55.4379 68.0895 62.902 72.9856 70.6017 76.8299C117.372 100.181 188.974 94.9089 214.21 49.0164" stroke="white" stroke-width="2" stroke-linejoin="round" stroke-dasharray="6 6"/>
  <path d="M46.6 62.1249C55.4379 68.0895 62.902 72.9856 70.6017 76.8299C117.372 100.181 188.974 94.9089 214.21 49.0164" stroke="white" stroke-width="2" stroke-linejoin="round" stroke-dasharray="6 6"/>
  <mask id="mask0_5_3" style="mask-type:luminance" maskUnits="userSpaceOnUse" x="0" y="1" width="53" height="54">
    <path d="M1.14441e-05 1.50821H52.6129V54.2951H1.14441e-05V1.50821Z" fill="white"/>
  </mask>
  <g mask="url(#mask0_5_3)">
    <path d="M3.69911 1.838L51.3282 29.4068C53.1882 30.479 52.9517 33.0771 51.1021 33.8606L40.1788 38.4588L10.6559 12.3541C10.0907 11.849 9.28923 12.6222 9.7722 13.2099L34.527 43.4695V51.769C34.527 54.2021 31.5984 55.1611 30.1597 53.398L23.6345 45.4284L10.8306 50.8102C9.37142 51.4289 7.70672 50.5113 7.43955 48.9339L0.0408622 4.39486C-0.308521 2.31225 1.92136 0.807006 3.69911 1.838Z" fill="white"/>
  </g>
</svg>