<svg xmlns="http://www.w3.org/2000/svg" width="23" height="23" viewBox="0 0 23 23" fill="none">
  <path d="M0 10.8579C0 9.53938 0.399421 8.36989 1.19826 7.33799C1.99711 6.30608 3.00675 5.65254 4.22721 5.35444C4.57115 3.79511 5.3589 2.51097 6.56826 1.50199C7.77762 0.493021 9.1645 0 10.7289 0C12.26 0 13.6136 0.493021 14.8119 1.4676C16.0101 2.44217 16.7868 3.70339 17.1418 5.23978H17.4969C18.4843 5.23978 19.4052 5.49202 20.2484 5.98504C21.0917 6.47807 21.7685 7.166 22.2566 8.02592C22.7448 8.88584 23 9.83749 23 10.8579C23 11.8669 22.767 12.7956 22.301 13.6555C21.835 14.5155 21.1915 15.2034 20.3816 15.7193C19.5716 16.2353 18.684 16.5105 17.7188 16.5334C17.5745 16.5334 17.4969 16.4646 17.4969 16.3385V14.8136C17.4969 14.676 17.5745 14.6072 17.7188 14.6072C18.6618 14.5613 19.4718 14.1715 20.1375 13.4377C20.8032 12.7039 21.136 11.844 21.136 10.8465C21.136 9.84895 20.7699 8.98903 20.0487 8.25523C19.3275 7.52144 18.4732 7.15454 17.4858 7.15454H15.6995C15.5663 7.15454 15.4998 7.08574 15.4998 6.95962L15.411 6.29462C15.289 5.05633 14.7675 4.01296 13.8688 3.18744C12.959 2.35045 11.9161 1.93769 10.7067 1.93769C9.49735 1.93769 8.43222 2.35045 7.54462 3.18744C6.64592 4.02443 6.14665 5.05633 6.0357 6.29462L5.95803 6.90229C5.95803 7.03988 5.88037 7.12014 5.73613 7.12014L5.14809 7.15454C4.22721 7.26919 3.45055 7.68195 2.81814 8.38136C2.18572 9.08076 1.87506 9.90628 1.87506 10.8579C1.87506 11.8554 2.20791 12.7154 2.87361 13.4492C3.53931 14.183 4.34925 14.5728 5.29233 14.6186C5.41437 14.6186 5.48095 14.6874 5.48095 14.825V16.35C5.48095 16.4761 5.41437 16.5449 5.29233 16.5449C3.8056 16.4761 2.55186 15.8913 1.52002 14.7906C0.488182 13.6899 0 12.3829 0 10.8579ZM5.93584 18.5284C5.93584 18.4826 5.94694 18.4023 5.98022 18.2991L7.78871 11.6834C7.85528 11.4656 7.97733 11.2936 8.14375 11.179C8.31018 11.0643 8.4877 11.007 8.65412 11.007C8.73179 11.007 8.82055 11.0184 8.92041 11.0414C9.18669 11.0872 9.3864 11.2363 9.51954 11.4656C9.65268 11.6949 9.68596 11.9472 9.6083 12.2338L7.79981 18.8036C7.66667 19.2966 7.35601 19.5374 6.89001 19.5374C6.84563 19.5374 6.81235 19.5259 6.76797 19.5145C6.7014 19.4915 6.66811 19.4801 6.65702 19.4801C6.41293 19.4113 6.23541 19.2851 6.11336 19.1017C5.99132 18.9068 5.93584 18.7233 5.93584 18.5284ZM8.84274 21.7502L11.5499 11.6949C11.5943 11.4771 11.7053 11.3051 11.8828 11.1904C12.0603 11.0758 12.2378 11.0184 12.4264 11.0184C12.5263 11.0184 12.6261 11.0299 12.726 11.0528C12.9701 11.1216 13.1476 11.2707 13.2697 11.5C13.3917 11.7293 13.4139 11.9701 13.3473 12.2338L10.6512 22.3006C10.6068 22.4955 10.507 22.656 10.3295 22.7936C10.152 22.9312 9.97443 23 9.76363 23C9.66377 23 9.56392 22.9771 9.48625 22.9427C9.26435 22.8853 9.07574 22.7363 8.90931 22.4955C8.78726 22.2891 8.76507 22.0484 8.84274 21.7502ZM13.425 18.5513C13.425 18.5055 13.4361 18.4252 13.4694 18.2876L15.2779 11.672C15.3444 11.4541 15.4554 11.2822 15.6107 11.1675C15.7771 11.0528 15.9436 10.9955 16.1211 10.9955C16.2098 10.9955 16.3097 11.007 16.4096 11.0299C16.6425 11.0987 16.809 11.2134 16.9199 11.3853C17.0309 11.5573 17.0863 11.7408 17.0863 11.9242C17.0863 11.9586 17.0753 12.016 17.0642 12.0847C17.0531 12.1535 17.042 12.1994 17.042 12.2223L15.2335 18.7921C15.1891 19.01 15.0892 19.1934 14.9228 19.3195C14.7564 19.4457 14.5678 19.5145 14.357 19.5145L14.0907 19.4571C13.8688 19.3883 13.7024 19.2737 13.5803 19.0902C13.4805 18.9182 13.425 18.7348 13.425 18.5513Z" fill="#448CFF"/>
</svg>