<svg xmlns="http://www.w3.org/2000/svg" width="22" height="23" viewBox="0 0 22 23" fill="none">
  <g clip-path="url(#clip0_264_1626)">
    <path d="M10.2981 15.8008C11.2644 15.8008 12.0476 16.5929 12.0476 17.5699C12.0476 18.5469 11.2643 19.339 10.2981 19.339C9.33189 19.339 8.54862 18.5469 8.54862 17.5699C8.5498 16.5933 9.33237 15.802 10.298 15.8008H10.2981ZM10.2981 17.75C10.3965 17.75 10.4762 17.6694 10.4762 17.5699C10.4762 17.4704 10.3965 17.3898 10.2981 17.3898C10.1998 17.3898 10.12 17.4704 10.12 17.5699C10.12 17.6694 10.1997 17.75 10.2981 17.75ZM10.3034 23.0001H10.2965C7.30012 23.0001 4.85464 20.6148 4.7158 17.6196L4.71533 17.607V17.5699C4.72236 16.399 5.08168 15.3144 5.69137 14.4173L5.67912 14.4364V4.90226C5.81095 2.42338 7.83082 0.463867 10.3033 0.463867C12.7758 0.463867 14.7957 2.42341 14.927 4.89046L14.9275 4.90228V14.4364C15.5252 15.3147 15.8845 16.3997 15.8913 17.5693V17.6113C15.7498 20.6172 13.3053 23.0002 10.3103 23.0002H10.303L10.3034 23.0001ZM6.28571 17.553C6.39797 19.7085 8.15378 21.4133 10.3034 21.4133C12.4529 21.4133 14.2087 19.7085 14.3205 17.563L14.321 17.5529C14.3113 16.652 14.0104 15.8239 13.5093 15.1585L13.5163 15.1683L13.3571 14.9565V4.96369C13.2599 3.33498 11.9298 2.05132 10.3033 2.05132C8.67679 2.05132 7.34678 3.33496 7.24995 4.95507L7.24952 4.96367V14.9544L7.09028 15.1662C6.59582 15.8223 6.29489 16.6512 6.28573 17.5508V17.5529L6.28571 17.553ZM11.0838 16.5953H9.51245V4.94249H11.0838V16.5953ZM17.0238 6.71161H14.1429V5.12265H17.0238V6.71161ZM17.0238 10.5994H14.1429V9.01041H17.0238V10.5994ZM17.0238 14.4766H14.1429V12.8876H17.0238V14.4766Z" fill="#448CFF"/>
  </g>
  <defs>
    <clipPath id="clip0_264_1626">
      <rect width="22" height="23" fill="white"/>
    </clipPath>
  </defs>
</svg>