<svg xmlns="http://www.w3.org/2000/svg" width="22" height="18" viewBox="0 0 22 18" fill="none">
  <path d="M15.4806 17.7275C15.4604 17.7275 15.4504 17.7275 15.4403 17.7275H4.28507C1.32777 17.5163 0 15.2329 0 13.2111C0 11.4005 1.05618 9.38876 3.34959 8.83553C2.34371 4.97298 4.25489 2.26716 6.50807 0.989683C9.12337 -0.499025 13.0161 -0.509084 15.38 2.35769C15.4001 2.38786 15.4202 2.41804 15.4403 2.44821C16.1444 3.34345 16.6373 4.41975 16.919 5.66704C18.1562 5.93863 19.2224 6.60251 20.0573 7.58823C21.9584 9.83135 22.3206 13.7342 19.6047 16.1282C18.4781 17.1642 17.0196 17.7275 15.4806 17.7275ZM10.2701 1.50268C9.20384 1.50268 8.14766 1.79439 7.26248 2.29733C4.82824 3.68545 4.00342 6.26051 5.04954 9.19765C5.13001 9.429 5.09983 9.69053 4.95901 9.88165C4.81818 10.0728 4.58683 10.2035 4.34542 10.2035C2.394 10.3444 1.51888 11.8129 1.51888 13.2111C1.51888 14.6093 2.394 16.0779 4.34542 16.2288H15.4504C16.6172 16.2388 17.7438 15.8063 18.5988 15.0217L18.6089 15.0117C20.6508 13.2212 20.349 10.2739 18.9106 8.574C18.2065 7.73911 17.271 7.22611 16.1947 7.08529C15.8628 7.04505 15.6013 6.79363 15.551 6.46169C15.3397 5.21439 14.8971 4.16828 14.2333 3.34345C14.2131 3.32333 14.2031 3.29316 14.183 3.27304C13.1167 2.02574 11.6884 1.50268 10.2701 1.50268Z" fill="white"/>
  <path d="M6.01578 10.6163C5.90513 10.6163 5.78443 10.5861 5.68384 10.5358C5.26137 10.3246 4.79866 10.2139 4.3259 10.2039C3.91348 10.1938 3.58154 9.85181 3.58154 9.4394C3.5916 9.02698 3.9839 8.68498 4.34601 8.69504C5.04007 8.7051 5.73413 8.8761 6.34772 9.18792C6.7199 9.36898 6.87078 9.83169 6.68972 10.2039C6.55896 10.4654 6.29743 10.6163 6.01578 10.6163Z" fill="white"/>
  <path d="M14.6567 7.5082C14.375 7.5082 14.1135 7.35732 13.9827 7.08573C13.7916 6.71353 13.9526 6.26088 14.3247 6.06977C14.9484 5.75794 15.6424 5.58694 16.3265 5.57688C16.7288 5.56682 17.0909 5.89877 17.0909 6.32124C17.101 6.73365 16.769 7.08573 16.3466 7.08573C15.8839 7.09579 15.4111 7.20643 14.9886 7.41767C14.878 7.47802 14.7673 7.5082 14.6567 7.5082Z" fill="white"/>
  <path d="M19.4845 8.82529C19.2733 8.82529 19.052 8.73476 18.9011 8.5537C18.207 7.71881 17.2615 7.20581 16.1852 7.06499C15.8533 7.02475 15.5917 6.77328 15.5414 6.44134C15.3302 5.19405 14.8876 4.14793 14.2237 3.3231C14.1131 3.19234 14.0527 3.02134 14.0527 2.85034C14.0527 2.64916 14.1332 2.44798 14.274 2.30716C15.0787 1.49239 16.145 1.0498 17.2917 1.0498C19.6454 1.0498 21.5667 2.97104 21.5667 5.32481C21.5667 6.63246 20.9833 7.84958 19.9573 8.66434C19.8164 8.77499 19.6555 8.82529 19.4845 8.82529ZM16.9296 5.66681C17.8952 5.87805 18.7703 6.33069 19.4946 6.99458C19.8567 6.52181 20.0579 5.9384 20.0579 5.32481C20.0579 3.79587 18.8206 2.55863 17.2917 2.55863C16.7686 2.55863 16.2657 2.69945 15.8331 2.9811C16.3461 3.75563 16.7083 4.66093 16.9296 5.66681Z" fill="white"/>
</svg>